# xmcd CD database file
#
# Track frame offsets:
#	150
#	74557
#	142825
#	218342
#
# Disc length: 3896 seconds
#
# Revision: 0
# Processed by: cddbd v1.5.2PL0 Copyright (c) Steve Scherf et al.
# Submitted via: CDex 1.51
#
DISCID=330f3604
DTITLE=Prapannan Das - Haribol Vol 2
DYEAR=1900
DGENRE=New Age
TTITLE0=Maha Mantra
TTITLE1=Maha Mantra
TTITLE2=Jaya Jagannatha
TTITLE3=Maha Mantra
EXTD=
EXTT0=
EXTT1=
EXTT2=
EXTT3=
PLAYORDER=
